<svg width="180" height="48" viewBox="0 0 180 48" fill="none" xmlns="http://www.w3.org/2000/svg">
  <rect width="180" height="48" rx="12" fill="#1954FF"/>
  <path d="M28.68 33.12C23.94 33.12 20.34 30.06 20.34 24C20.34 17.94 23.94 14.88 28.68 14.88C32.46 14.88 35.28 16.86 36.18 20.16H31.86C31.32 18.96 30.18 18.12 28.68 18.12C26.4 18.12 25.02 20.04 25.02 24C25.02 27.96 26.4 29.88 28.68 29.88C30.18 29.88 31.32 29.04 31.86 27.84H36.18C35.28 31.14 32.46 33.12 28.68 33.12Z" fill="white"/>
  <path d="M47.7722 15.12V32.88H43.0922V15.12H47.7722ZM50.4122 19.32C50.4122 17.46 51.8522 16.08 53.7722 16.08C55.6922 16.08 57.1322 17.46 57.1322 19.32C57.1322 21.18 55.6922 22.56 53.7722 22.56C51.8522 22.56 50.4122 21.18 50.4122 19.32ZM53.7722 24.72C55.6922 24.72 57.1322 26.1 57.1322 27.96C57.1322 29.82 55.6922 31.2 53.7722 31.2C51.8522 31.2 50.4122 29.82 50.4122 27.96C50.4122 26.1 51.8522 24.72 53.7722 24.72Z" fill="white"/>
  <path d="M68.7484 15.12V32.88H64.0684V15.12H68.7484ZM71.3884 19.32C71.3884 17.46 72.8284 16.08 74.7484 16.08C76.6684 16.08 78.1084 17.46 78.1084 19.32C78.1084 21.18 76.6684 22.56 74.7484 22.56C72.8284 22.56 71.3884 21.18 71.3884 19.32ZM74.7484 24.72C76.6684 24.72 78.1084 26.1 78.1084 27.96C78.1084 29.82 76.6684 31.2 74.7484 31.2C72.8284 31.2 71.3884 29.82 71.3884 27.96C71.3884 26.1 72.8284 24.72 74.7484 24.72Z" fill="white"/>
  <path d="M97.215 15.12V19.56H91.275L91.155 20.94C92.715 20.22 94.335 19.92 95.895 19.92C99.975 19.92 102.495 22.44 102.495 26.4C102.495 30.36 99.855 33.12 95.295 33.12C91.095 33.12 87.975 30.48 87.915 26.76H92.595C92.775 28.32 93.795 29.34 95.415 29.34C97.215 29.34 98.235 27.96 98.235 26.34C98.235 24.72 97.035 23.52 94.815 23.52C93.195 23.52 91.695 24 90.195 24.9L88.215 22.02L88.815 15.12H97.215Z" fill="white"/>
  <path d="M118.226 20.88C118.226 17.34 121.166 14.88 125.546 14.88C129.926 14.88 132.866 17.34 132.866 20.88C132.866 24.42 129.866 26.88 125.546 26.88C121.226 26.88 118.226 24.42 118.226 20.88ZM125.546 23.64C127.346 23.64 128.546 22.56 128.546 20.88C128.546 19.2 127.346 18.12 125.546 18.12C123.746 18.12 122.546 19.2 122.546 20.88C122.546 22.56 123.746 23.64 125.546 23.64ZM121.286 29.16H129.806V32.88H121.286V29.16Z" fill="white"/>
  <path d="M143.633 15.12C148.073 15.12 151.013 17.52 151.013 21C151.013 23.76 148.973 25.8 145.733 26.28L151.733 32.88H145.313L140.333 27.06V32.88H135.653V15.12H143.633ZM143.093 19.2H140.333V23.1H143.093C144.653 23.1 145.373 22.44 145.373 21.12C145.373 19.8 144.653 19.2 143.093 19.2Z" fill="white"/>
</svg>
